<mxfile host="Electron" agent="Mozilla/5.0 (Windows NT 10.0; Win64; x64) AppleWebKit/537.36 (KHTML, like Gecko) draw.io/28.1.2 Chrome/138.0.7204.243 Electron/37.4.0 Safari/537.36" version="28.1.2" pages="2">
  <diagram name="output" id="ozreNW5yFlGvVBA_ZWNM">
    <mxGraphModel dx="1489" dy="963" grid="1" gridSize="10" guides="1" tooltips="1" connect="1" arrows="1" fold="1" page="1" pageScale="1" pageWidth="1169" pageHeight="827" math="0" shadow="0">
      <root>
        <mxCell id="0" />
        <mxCell id="1" parent="0" />
        <mxCell id="azScYemV3h5fui_g-xwV-3" value="" style="shape=image;verticalLabelPosition=bottom;labelBackgroundColor=default;verticalAlign=top;aspect=fixed;imageAspect=0;image=data:image/webp,UklGRmI1AABXRUJQVlA4IFY1AACwDAGdASq/AcoDPj0ejEUiIaEQmVy4IAPEtLd+GzzgqqODRmgf2Unk00P8V/N/2bv5dNHivV1/I+hca3so/l/cz9FP9t/nPYj+j/YE/Tz/b9Tf9yPUB+v3rS/5v9hvdh+wfsAf0z+6elz7I/7a+wh+xfpsfsz8NH9f/2n7RfAt+v//71p3yb/P/x78Bv77+PPnb+J/Lf1X+3/sN/df/B/qvkMyR9aH9l6G/xf6y/V/7F+zn90/az75/xH9y+4T0p+M/9p+QHwC/jP8e/q39v/Zb+3/tf7quyZ1r/ZfsP7Avp98r/uf9v/wX+w/sH7yezV/CfkV+//yn9bP8H+YP94+wD+Pfzb+//3j9v/7////+394/7Dwp/vH+5/53+M+AL+Rf0T/O/4T/L/9f/Ff///7/jR/J/8f/G/5n9qvat+c/3//k/4z/R/td9g38h/on+f/uX+Z/73+M////r++H2Eful/5/dH/YT/1iHHy6/E+6URWz4MU+SPPsAd1FKotl/vC92HB67i7QHi+pPZ6wu+pIj0tpoDZdX5fDso93FiZxluNxZaqqSAh7VJkhiLZeMeuWVjC7Z4QOpc5XA696FMDLdjLNpW2Ny9SsE2MH+1l5wSGrxTy/4oyjJ3pcUZRk70uKMoyd6XFGUZOvrilMilUWzAHdRSqLZgDuopVFswB3UUqi2YA7qKVRbMAd1FKotmAO6ilUWzAHdRSqLZgDuopVFswB3UUqi2YA7qKVRbMAd1FKotmAO6ilUWzAHdRSqLZgDuopVFswB3UUqi2RqH10Omm3WqiK1DwpfP/maQ6xU4OgSSqSmBc/RelPdpk/d7bTGTPmSlNP9DEWzAHdRJYb9udeybWKHZbDdghmQyxTXEC9yUvkDwpioc0uSpEY4zs93SlVThja0R1aWFWOQoe1SZIX6wCPXA3RgYle0yvuLMDcvcZ7/6enTJ/M3JjZF0z789NZipvjmYq31rKlg9WOajqvzur5qY+N0mpON4RSqLZgDuokTABjbyEAjgDWZwvyjZv9U022FZ4Lwe1SZIYi2X+y8pVyIoYReDm7r/QC3O+tesx8fQTubjD/1gcGuopVFswB3T0+vp8Xws9mJ287cloPike6nuN4RSqLZgDuopXV7yENy2V/tUkiv/Og7YbEk6a1IwQxMkMRdIQupE2qTIuuCO+YZmXNi5SG+/G3CLsnG7ZAoFI8Ekfs44Sk/tdxTrxwDJsJ6H3Jub+Vv9DFwhuWyv9qkl5iqRAAB6G0IEYWJoBsG2iUv8kuEHSeDUZx6DzgpMkMXCG5bK/2qTZlxMq6i2YBZqe43Hh4LNqNSjixwu6rs6IKWG2XOclTxhaFSzKBiKP0s2LP9FAeh1X0L4fgEEq3RZLhnzfrrpCF1IbC6U35eeWu+MWsMDL3kHofMz/3toW+k4vW8Blwe+56wlyAijAaQBzwtBBEIFj5GoBNTf/LoiU3ISdHDHATwGzI1XIwJaW950HWQaFEWLRDoV4jn9gMBJVUNbDhsP3F05NTbKMxsWE2wRKVGDKYNtHO2DUibVJkg2kCLE5LPhAvrs8DA15qk2Y+c+MY+zbUUpwgC1kMcNbBAi30gPPgiTFZsb1UWzAHutjm21pVFswaHG1SZIYuENy0TC/tIjbOnsnxRlGTvS4oyjJ3pcUZRky40TYlxWsGSehWXYEOS8PVuurpysNbq6crDVkxTd/t2MBFYN1qOlK3GBxWSAQQlSgcofMfCGl2tYN5Cd32lKb7LZwaQbT+0A5LfDK9nSOy72mQoSp57WjgNSVqVP9qkyMx1EOMY2J3nbJGndlF9R9bVePA1iopVFsvD91hmZis8FlwQ1nXDiIeDx2Por9XkHjsfRYO8yOEB6jXkA6SCc4Q7ZxuKo+81gkzHQBNfIDq+ybCn2277dnMwimdJW+Vn36bfR5wrJ3nPlNUZztnCpvl28TDu96AM4VyS0CeDfqQF3anxI1MrWRM+irtk1A35Yi06DzRtz2x/ZplGTvS4oyjJtZcMwgRQtFpZjHEU7xplGTvS4oyiK/BR5wu9AHth8yTLqvp10XcdcUJHLwL0teY9vLWUVKEQ7HOpcMgNB+p7zwojTdk5L08fz99DEWzEFuVyckwb0hF+N8FdlFA8gd6XFGUZO9JWMGX+31xRlGTvS4oyheTeDjW9ik/qB3UYAlcddXTlYa3V05WGsP9qh091yDzvnGZHBvGepGcnxv/TcgHBvGeot7ADeWTKn1AMfnKyzgxFsvDygGntioDb+qGJkLRG2UKE5Mg9UmSDYLJzGZ/vIQVUw1Q3mnWlT1wqlqKuBGBZRhekq+Y5XNCpTjV3EO9PnnzVHrA3C5AODeMoSM5Pjf+m5AODalYE99mAO6ilUWzAHdRSqLZgDuopVFWtJS+23cSNibZgDuopVFswAmgD1aFa2VEi0tPgidpK/1ao9N/fLVRbMAd1FKouMt4P82TLhF6rRKd1lzFm+83a69kprfO0RgLhEwYuRT9OwHgSZLzD3BOi/SpKkwGwti95II7cpOtKotmAO6iWoFrRW3s21045dyHbbBaBAcY749bDpNRAZ3+FLg8CotaWqQxFswB3UUqh/m9GZCsxUvWbzmu3+hiLZgDuoqsm2YA7qKVRbMAd1FKotmAO6ilUWzAHdRSqLZgDuopVFswB3UUqi2YA7qKVRbMAd1FKotmAO6ilUWzAHdRSqLZgDuopVFswB3UUqi2YA7qKVRbMAd1FKotmAO6ilUWzAHdRSqLZcgma67LYiJPTWYqb45mMq/PcFLwkXRa8PLUSJknzNVzbItEhA7U5S13Ooo9V1GkBMwB3USXC+Z+hMuTbT1BRi6JdIezaIG2okm6eJDnxk2zAHdRSqLZgDuopVFsv9AAP7/RXX/9v2f/b9n/2/Z+LH/xb1+7DKXODpOCYI/TyXipJK9FOKoDw8LmRE4JpaPJ0Oshjyk2MNy65EYyZVBJH3FpcmrTbAJFpmNoDR14LJiByL5Qup9Qlw+o3RL7b8UER2sjNweH8+xOn3vMTo3UDnVJyb3rSKLxb6yZdWgbd7JtqUV+ZgsftjRKu5lh7a7VFxuwAfXLyteTKhGgPdcotKcQdA3i3isVsMcMqhzv5IZYtowdlWzUTQ050Daynw+Ild6L+KHa6BiCmZXpG9gFWsXVTPsLUGssJkyQmRad5YAWwg5y3u0lkSyGfx0NfO6iy5vOFCBflXEwsN86qSNgp1JvgCw4drNjOJnjWyiUx9hbazdUbr3kS4+eZple40qOD6HI2ThMdoC9h4QEQRC01hKSls3s/BV9b5L/o6m5dLvdh64jrauNJtLMd4hHHVl4ktyVqYy1sSDKh2rQtJjZb5LNOc/YQYTZ7tZXOKmV8avCZuKRz3ESujyNNxmtU+XRfEfmk18mPMeGXjCWCUbKPrNAodGoPvnJjj5TnTkywe3xtX9/yYRpllz3qxTr/QiRT9ef0U1V+RDdVSRJwrP/8x//f66ZnwZaYI/ri+b3w+OXFr67X7qPC976xflPG9fqQm2GM16srfzw4cV//Ua3PwWGNa+Mz768MZ+gGCIeXCAB2nEPIu2gDj20DVn6/VsHP0GII+woh3+VFba3BvNru6CMOdvf2nSxGjBCFGcs0Yy3+LLL/tDh0+45QwdEKG3dZht2dt9HkQlnipP9PIpGGpQL6wTnBNxVsRvr0BJt1MzmZHtzwjkqM6qeM9rKZFE0wyKWbgOzHgjapiZ3+mPafnN28NHEhji6WDZ69yKUzWtWUpmURjzzMLDzS3PR+f2u03p/ms4cxZTHPsIxU4zglGh0cnnftUskKCgoBY5Q8w2WekXB49cRsYTkZY20J/SZCkmXFaYwSl/hJzYQ3SdioUWDmhVjO3C8LeyaeRpUuTBXZwJl3GSuf/9Uv9eg1I1KS9sxphcATy/hs4w+SzdHhWYAv/gaAdXRgr4eZOu2gP9dnsN8cIWSMWqUTw7rLR/ceSToDJ1NTecOJdxcMPUsuebRIu0qqmuCJlckf2LTs4E6ovzCf4VdbNi5V3U3ckvYOTFtiVRAiHPk905hmW6TbfKsjD3oiKi/mIIdzAK+LSBORB997gjessABxe2nm6vn8uTjIGLKC5b3EslJywxmvetv7ZIeZrOdULHuNtYPmq3LcNICWx/eS1I0GOSMdFh9lZN0VXhbzmAy5uwoBAtHVw1O2DH7tD5coOc5Sk0g0HVIzzxzJrWXaHEXmQGjc0N2H+qC3KjgNv9qStfir160Ekfe9MHkKs559jnaKfGbOmV1yHqRzhXJ/7U/N9maWJ6vnOgy9xs/l+gy9cfLbTXn5p0lW7f5LK5WgsXKq5VXKq5VXKq5VXKq5VR0/eUVK7AAAAAAAAAAAAAAAAAA5VH/2m5XmxRXVIZ02rXK7MmkPUpRedVNof35Cx8rb++19QVC2BeTXGCQ8CISKjKyRhTjyhUDXLprAmaOHxtqumROKW+KQdhecS1tHuHRWtZvvhS+TDxWUDU9X4UNr2KbwQm+S3+pre0/ES7tXUV3yUXM91hHWJMysjlYRx3q7kNYEEZXrVeKjrMgU7UmG8csZbF8xBsWYT+TEWGoXenA4HOu+Rn+n8EwPNwoHG404+iIlABts/W6d5cO3N2S7WtP8TEiQNYsgwRaMUnq/3rLDwLPzTxAyxLlM0HOhfPlLFgbh07oLLO5CRMszPLoeD9KUpr1Me7LUFg/4ejU9u9F07ugT6qVX6Isa+Xf2YY1F1XAyfqja+B9q+d5wKTCNj1PxiOBOu2KVmyvDDq33Bbj6pql56fPOOdpT0h55HJk59uKuQmPVWXJ51xFp7inZPISWS953wv8F6Wg5I0ERglDH8zuiVP1BBKmy20SSlokQfQasQuzDMqSn/YfapTTWwdb1ssm0MpMczwG3Obt86Dx+F2ZlE954ppXovNV+hBYFT2zWL/Ih3jegk3j2MFANVjvV2pMAdzofDfyydMNMNdnczv/09EjFu+k8tpev0Me956WdiOKiz3GHQO7gVNHAQ5j3f3iN1seWUGPGtUHFnEh9mFaoMucs9NSYcksmKvnkYB+waaux/P9gfErNwfqs3iGvb/uVDmafkl3JlXCqfIKoB4vWdxaYKHt93bFC5lObaoNlKzfVnB3zmVjNIExJ8RLcYWJTEIHHWYpII3ALzt5ESLqKHemyXvHul7+M+8KdpAjEBFPUWgis6xDXqswspKC9a5rYDqqeKxTrkXvdxCwii/H12bDdWZezo6QcZ+830cg4A588hhWZ2w14LVqS3Ua/N6cPDSOFKzlKtOlnfrVsj/W2TkwJdahpBF/rzj8GOwcVn6znPJXZt5N8tGwEBPM/99q6wXkXgo3a0O5ps+1kseZNvMfU84mKHb+F4of3UoKCY6/IuJvC8hdMfmnZRTJ9+L27eFNjX8su0uTeSdG+dRjmIrEuZWtTW6CYFWLHmtc6JZYeP9UstNoaLSNVaDMLoghlU74awWH4qD7hqjTtTTpmTBH32CLf/EReKnCfFM3vo6du1gcn8g+xgNgXbUyRSVz/Dt0ciAvwBB03RUo/KpN+Hi4hQrO7sty3ztq9nqyJO5ONISZL21zZiTfJ+lFFX6Ma0msGvWQpN+h3YI9Rz6qcwvIXN79mtXpcVtSoT2sdtV3wbIIrATF4vtm/V6rXD4TW8bve4km/YTe+0XQLcNeA1z24xinS+ZNPDkWbTlVFNUVdX9NVY+fKES1uqJxelk8slf6c6YSMpq6cD0WnHItgqTnqP/+xVfY0m9z+VT2ITlwcZ6IE6f6gAGTj3hNGBAABrrXPLvbAQAiTsn3BwDBDW93o8IIR1m6w4MdIuAtMbgx0i4C0xuDHSLgLTG4MdIuAtMbgx0i4C0xt1hwY6RcSEYayFxnFtEjITmfnAODIULmy0bD50RExw1UW3l1TZgAAAAFcN5BP939uaAXn0uHhm3YeqcD/+I2i77c7p+LeQe7XxaHMgWFNixPAU1TKdhB0975Ex6jFjTetQfzCuf//zcukKgP0jlrqvooV9Ybu6r2o+fMiLsjdKtnyf1/NVsBxIwGJGTiJcWEOAxoebbErpbVAAEs33/0tJhj8YWJn0axYWuNwJ9g3Qi0gItQdNb2RBk6Y+m9j7arv0SNAr9iRNAzRt9ubnvIAo5VuF0Tjlwx2sSiDVVg+We8l02z3cCZM7Axfszc+R4aPLKsJY3KgU/Nf7OZmuM2vbRtuDYUQx2mrY8v8eoWSpGW9JNs1JXW/G/VrxxB1pOJgADpzlr32B3yx/zmL4LNDxlNGPtthJtbvtdFFNRDgijQk3e5/WGg6BAY5A/S1pGuXPwLl/16ZjI91EHycZR5dcWBWwfPWmiwc48NFd8E/56VmzAVBh0qhNYxFAJ9AIaqlGnWAQn3fwSmKMnevGlpr6j6+uFrEmsf5R+FHhfyY/hzQjCslF3O/LErqzvkNVlDPwNJSURyj/9X7UayFzxSPfngS0g4KkIwhqQ/ElkcMc8/bQR2Qf5eziOSzisMjgOpDlHf+8/10Nz1iFr+a2egBdVrQ7WGZj/d/amYmKEADMUehn4bo7PIKPTYFZffyOM+TxJHly3Bi2dVdscij9qpLubA7TZiQkigZEMpMzQ1H65ntML3PtNb+IvMMEnyFwulPTqdJvRgypE/geUi9myn2ZEfU+wSyYrZUdQv+Jb5FikGpYhwlEyyLD2MfDMErGCHlKGfTMCu2p68r2RPa9WLEQg6W/DX/8ZbOcJobHgWkoeGnxCStDCcub4i7CidgJimIxy8owzA/Fjl3lOA+5CKDePM03PjPanth+d9MgFwVrEAh/ZsGzIyHfBrYRP71TIREIfOc5YlQWh/pXZYHONUgoAA9mzSrTmsNfa1CZ8o8El8HoyWF1spnRKTgL0MXdqGRWby3HCLNRdrUBBHOhJ25q14NvfaDWcz7yzPO3sHKpoGfHDNrUzYD58RtQOfKDlePZsL5jaev4Zaf/un3y/8t1yGrSyPvFOY4FxP/FSHTv/rQ1vnUIRadxxOIiLktFn+GzzC6fG8j9pIEFrNBfuMU5Q0Iz1M96qaOLpYPKMBFgHuoMKmRREREIdZW1Sr/WNqqu8YBpxOn1RIyk6ofYLwQVr/C9YIZ48wKE/i2bDkHmww7ls3XZEMt4GYAAE256dJLU+z531yZ9Y1G7uHddnQNGQon/798r2VVQ2hgS56DHRWBO42XEJ8qYvQbRhFN0y6aNpAAbg3gQQmYbuYqnP9spYdDeCvdHr4IfIJsB0Lj0kN/IoNyk7puW9E/8F/wxP58l6YUJ7dYaYAOCkS19/mnb8HCVuytvCWewMo2F2MZFgBc6SSH3knyq4FEKiiwf+ZOJEGgnLXcyUifpBMkiGykw8q8dfT/r20Z75A17B3G/SJ6LS4BBbVLjosgU90UKw/ZiivoKOAp2wVTCdYM+aEYFgeeztyZCYIhFF4mCMGAFnNrniqlk0Hp5h7UW+F572kigad0MA9EQGZDknyxtIOBJjvGbpFSlZqaVZi4/vlK3ZeDZz9SV5FOuQ+H76eSvvN9j1OZeaDv924UBvHpt6G2pB2BtO73ncc2g7E8DP/3CDaQFcONIxMsRS57crvkb262H9e23hD0Ty30ZViYjE/b+KQXcWxUORw4jdZTYfuYzd7AquNqkflEPPfgg9Skzp2EnibTx4uxFb8pmCW7YNjS9KSL9Wa16F39KFOxqGxo/t6gFrtLjzUiC9kLrzcrb9cA7IEx4ex2eralnjp0pqfJ4oRjsAJcV+8twbUjPxOxMriCmZ8tqM7daJDniLPsnJa55lmF8lPfvINoguXuxANPcSt8zvScDK4/sM8N04IzHDr6fQwq6kzcwGdr/jhqnu7XHz9MvBdsVqJNjERUQMUCacm8m2HyFnfkPGhqb/erNLZNHf5wxWK+xh6tRAh3aGu9O6t133kQJQ6fFH4RTHHH8UDsJwFN3MzV+yvuFaatS2RiIPuXlmPZZlpjiqhw1C0Owd/T0mrRaLNz/y6K9+KDIFzrV11KdY1FSmSYNmawpXCdisd9s3fjcaRd3qZVXtGnvCTh8OUSd39g9dT4YpHdXqB7SouZDixc+7t4wiEK3ZDbmJFbCahjqiuai9LLgPANj5lyNMeMzytq1N28bb2J0M4RW98uEBAgZSVt7mC63t8mNQ129ok+kFBau/DKn7kxdVvfbxnbnxT2F2wE0iAM5drLnssaODB4+Ossd+QjURv5Mh53abb5aD07+EsK28iBkACQiHABztuvhAwC44yf2G3nSRxBN9ZpOez+GSfbPMrkYQyK+PNsJnOg5UC4X1Zdr3Pe5l8YJNX9W0VjyPnhADtpOv+KCwiRj0sdfkx7PIzbL5vu5EzP33JlsLTWbN7dz8PtijuiHohf61lpaTNUHT3cOrHfrwG3pcC6n8zqBqrsTrKHvuyuzFG0GapfgsOQnWUsi6ylYBjDDjn/FzRJdsukfE6zL1XyKaZotYAIhiunRFE/SuoAOEXLVBaL3baynu7/IYuMAA3YgVGtlA0Wl8X+FoTInkh2fKMJuomHagw6QryW582FL27UnA5hNhxLjO0SdRvbASWd1yx8tpzziCZ9KYS7Ngty4q0Ea255SrSklEDM7e9S/AAQW9Pb633jByTujZRtx1kMlw9Gwubexno13NpC7gIA7LcHVJKU9ZdCqYF57WPuzYUuu5hAupIT3e45fiCsotLMOaYqPaoFiDf0SdFz7Ii+pMUH8Axh528YNqcuAR1EgeNBrRvctQipaw5DnJYqedtvFeOQu/83BWENRrkHOP+skZe/szcZd/660dsNyFru2RI3/7lEUUAQs4i5UFyGmPauQaht2Dm2eY9zFKQ1q0UQALvyzpbJNfuIeXMDpOQdP9CFfwk47V5Z/JwOdRFMUDaPEen3tYSY+hX5qr0Vs1Onu70D72mrdEJPasHye1nvyPOArPcE/RRROokQ8UYXFLCs0YHg+U9dse10MkBfEC8GTUTrtmwChdY/gbYAu7Oon/2VG7WKQypVw7CpKU9lx0/198b+Y69CBTp4O6scjX8sBaSHvG7L/k5a6MHR1uoyxLofFVFaK+Jks4mfZdi5X0JSr8YVHKsWTaP20rvZ6Rb5I60d79+KdcMFuM4NZ4qkITw8NCYtWiPNT5f/Uo3fkMdlc8xSsbyGhs4vtvD741D6k2JuFDR0xQo29mxNv+xxUdldXMCpSrieHxfSPvCSrsxsiuB17p6RB1RTBPaBtnv3UYmXo8kecopcWkuJFyDw1lKR62WCWqNhYnn3tkQj8eN9oKo5VNHX4gLpNSBI8FBzjKTw4mWSxsftHmse6bx+/L+K2lUxUAllSSzacMxh0uniS+fWAA7SlSccbaSjnp4Z0PA/ByHBe0+xi3+RsnpJFx9QqcTWLcd9MMv0m+8MWdwbw5Bm9pnONFbg3aDR3gSLNTx14MSt+iapW4mvUeL70FjwNmQs6HkPKjv1goTo4N2AT0V7enMAV3dtVZPJtgG5Y81iVFV5t99GhuRTUNTCg58SMUpjsf/ecwJjjYxjMU3HV/5KhDg4wSAI1rNaulAcnSADviPcNawl9WfQQ3+5ZkN2yMfGTMynGgtC7443gKYMxHMkDlOAysoG0TtH8EVshMYKb7/iW97vCYQu5gv4AZ/ilQ+dly+RPjOt8WxOeRCIdovoazb08LbxwEi1ZZfwT5nYN8Z7wk0tmmAwZh9wehQbGnSLIk1ccyR5IQL/l78GrBCElYZAdwsD+EixTKUcsQcbbdEwuTq7k+mxysJlMQN1GmGEUERqsfjHBG7kA7/BD1/jjjVHWV0i2+g2N+oi4QjtpYGyvvKJkgh1B3E36rHPuIR/7NVN6K3agI/YI8OABe6jqVOSwvQyP7Qh7m5Oq1v7+uDIlfieurvnG1Xf+0uYVH1y8dLBcPc6D1U6eikK3n7+RD9jWMqcz8RuRwiZr/tMS6v4NvhlRJi/gMUFQOJ4rvCuW9xNgxRlpr6BHENZI9xRRYZ4R8tyPYkAUh0CeN+BYTlywqVRFjlUmHXZnq0+z7fQbLmhYJlOilvk6X3OOePj1QceKLgKnqpgXYMZUiZ4IkmiwOr5F3NUOH/Qgpiw3paT2vcrT7/8gU84i+zJ1t27uRhnth1k3rYB5vNoEWQDIvRxYKx/gP6sxZsFc0/syeXD+tYO9jSD1tLaRH4rnIZqBopPEdl+PiLQqWeYlPIAVfw99vwdC7RfrobJaTfav6TJDJf+6LsUdze7L77x3L142Zsmy/TRT0ci3N/Qll8GzxWi4u6yPR9RIyCr5VJFtGISDnw4XLYQuJyzJiOln/U1z/uoIAXM77CK0H6d89R24KLf+IrdsV5jZNT8rHWcRfGOWcXtgPxZhp+mrIAws75Kbzj10ESr/QcbpfVNZqsopJ/FDt6YVytloF86FFx6fdXvqwSjc1KLCMS/85HjyawqzRsoJx52DB64JGNU+UNb7KLXtTCrJkG5EJRAv4KQY7HL/uN+S9qVXjYYkry2wLfLG1Le9pdk9vb589jk1wJ2OjqqdSYeNyAZR15fKzUCi2ulCjsCZYiV413fKFzhdHX22/HbHjoWhqxLOC3y59F9trLU+4ikv7tMBEfKBh4g+oPNPdG2m6MRbGm4MjxUaga07VIU3bq6P9MDFp1a6U03LGMbTm6TxDxkVBNGmBKSD068zzO9HDVPzXo+s4QYK4PFn7rDW531nB0fq/RiTbYkGo3u3cS60Y6CBQhTZMlJSBjAQfQYSgbeSj+K4/HM+B9JJLPlSUFarw5tOOWOYpHQ3aZbN1Jrecd4BAiPHk7LCZG8dGS2ofr4qMrQZprPChEqiZ3hLwye5WfiXBlv/kUAvtxK64dzQSvz/w6H2P4MycGHHXWVuQSDFfoc09/S4JMr2nlwjfqfP95fU2jMfEuxF/uaegoB+yglVgvgc5UDgB7Ngi/DsHSbv3D1mOOj6hQLD8dNqzPMbbzY+s0SLz0Z3C8P2F/67p1lsfcUES5YEB2wa9/bU2tKpuplfSLpG8LgU+aCgH86QKXtwENxqelYGXAP6WOEQ5ivNDsS8cI9SPz9MaDZCVrI1748o6ajfXVF2DakakAJPMG6BkFScQRjL7PGTdA9awTDtwgIqElznypB/GFSSUNKVNvNd9HnuAsvKojqhDQrwJiC/YlqFpVodbnxHqPpNeKTEQR9VT8tuf6PmUbgGWvAHgFuycVemDtEr73SzXq6bvYxSUBeX3m4biWV6/goGAKcTddL3xRBTI4qGeTBqxzqi+xeBTuLE1Uxep6x4VTtev5V1FmoA9mZbfQ598ZyeqO8zBHZ7Z+pjopeWzNDbUDzaoC4OZFroly/PuU4DJvd2ZbXBRkvJtLZv9/dLuQ+jfPYhW3Y3gYMGmtRj0kGSQVJy+VLcIfzVJOMl6FeO56EHWorcUdG3jdm0beELgH6XkGk/4zUkk97K/S8me31SjOeEHDNzu5Bo7u37opgFhA+S7IlvAeB+yydGF3PGhqJTFY8W6ISpSbnFnLqbMlZDlOZuqnzBcDSwp1PRe6wrv5yYG0btzqa845vOv12KAP8Si0OE3xm6+RUrFfNrLiUV4mk20MywU/hHfbfs1mKXtbfGRkQ5RHSMucfDC9OCgeK5WvGzFZWDjRrlIyDIYZ7+qXjn8HQ6bZI2UQ06sa50xnN98yQ9pnMlILqEdXl3FAMvfx9YON1qR4D8Vh0vT6tqNLatfwSh8EtABMRDgCFiitiFyYgTvNRDfw7Ry0ji+5slDSD8PDMdyor6dlHC8SQoXB4LClQHm8aol2RLpfx2NQIPkqFcBlD6hItPazCiDCfxGxxNfqGJr9QxNfqGJr9QxNfqGJr9QxNfnkf01dDoiQYU3Sx5D/QIDTGoyTS8hMJUuIssIiO0cSxTYGh52rABpO5yRJVLzaHgNaka371rPqHoorM9f8uBSaVLDPM+trxJdaSer82SgAbgAAD34N26GaSGLf6r86jli9eMieEBAvpmfwR++q4P8+M9KF9Nv2OxF6gVqRkugDgUOf5a1WOcn6M9uMTmSC69PUMHuVDof9kRrfsHlYTBgQ3tVMhN0nE2wG6J1mtva0HOhIf4PCJp9/O/Jy5BSd1lhMSBhar9G0Gf++d2v1yaCBVddFlskuyi2DisHvY8HIoUCxpWWeuD3+PEQc9ysQltVc98PNvfydBbnbcWyLaORCNF32d2xf6t6/M/sd/tp7o96XrLho18dVXqy1Wn8e5w1IR+opwnRfWiXz8yT+ksKKLd5q6WoQanSXqOuD55CGkbgT+M0dfAgrIF715+ICUp3h36SsPLaG/DPKj4FXhFOnjcCsjzcj1zr4Y2DQq/+dhHQ6nekaO+3gAv/9mcjEJjF6kiEJfDyxPbfkZcyKQmlLV+KmoV658410+IfRuZgN1SYI1jlQxbBLPk/vyHAd9lqYQg0skZ1XjnWH1Gbs366xdNKb7PRloNr2MxuZziQyaPRSdLE4yN98V17SsgJq26KAa65PbjWnLv62gGG8UfdzWziYzyoytXiX1vJbB1bc+yhSxVJ/+ayALp1Xce5ochMb2xCeVg9tH3ISpy3onWjQYDkNODKlKGroPjAKxUyM0yK0ueh3vabZv6l+RSUk1IbwyUZ8w6trRBPPV8JmZUHMVbT/wYRe6wPRCV9WIHppnipJuDAYoU8ofldZVYJnym8Yt3WRcU4pVtvndTVGvNJ050rw/GYh0cDUKP4Iscd9KSlwUhJdXfoiAiDSxQNGYo7Ok7jcui8OhFvi+7RGv1NhrDpNQIAIlGvHAqYoDY8PR/x6USXbe9Oux+NTOZp7uFfahG2EWyuU82y/e4fqLlseDkWf+CbnPcdklD4arC6vH2V5vkGa/yKinS8Z7e9Drf8WNB3xbebGFl3C7TITbedzotCo8yLH/AkgCtL96tydHoaD09XpyW7jHZauigtrOOS8p7xljIMyslSGr6p3CaMcqN+iSpE8Knm0yjiaGuYgH7S21AbeZh7oU5K1eILjiCko0t0RIZNGGZ1C7ItJRu4Q2g+8wGXOg7fmDUnaJdCvpaNAeRf0NRA7308Pp3qFIFAenDERqWqx8K5f4sRRtAQOnkuvGaxkQKRXmBfGuvc5YNdV535+6RZJTA8n7u753onw2e64TP2zibyq0RajSNSoZUNFXk4ej5QA9tW+78HRaYxgacv5y7dJ31mc+fCbCP8KAi7vhk3ATvlDWF/EAAD1Fa9Ck92I7il9rH2oo+vEQu0aSNWa9AodHwuKPrhFeE/RVFEtTOmVBuDVy+U8rHtXV99uC2hxu+5CUfJPN9/f2ElYUWDu3b443Sk+J6lgXm3aw2du4ON+CslQ1W22mZlD3SA8f/zi6w103w855vcAJOhq+b3ACTphNs00o5fanLt3Q2idxNco8Xs89PlcwlqZrcczW5LhtFssVtBiWfkHEmi1s5NkLVAUIYJz/HIFMQ05dKY/wlfebNLNqQNqb6keRZ4K/KnoMvRGmqC4Bt1w0ebW17aa5wlnBMvmWa2ns91t/EkC991w4KdefteCV+kkzAAAA+zAQAo0HCcAyyfAALHFJTLkA46aPPuzzSdaChQYAQ/HqknNGQs2jnVaCgpjBAbBRlqsmltHctabrQolZArYm28wwmdpJ5oYYOeI+YcT0LrSjpksPVJLikpksPVJLikpksPVJLikptT/GgM/tKBAfUgDYFUVVMwPcmWGQ2aM5wb3KxRlmMrIS/rqMBERNKFw0PxDFnMNwT6v+fY0VGbU6a+VZbkMvJ4XndlxO+vbM072+doXx7S/wQcyZySkhDHc8yVNe024FOD8BF3k+1wNWZ4x4OKFi5rjakhGXEduHh8gfyLuTc2yAT3WIJ8MLQiz7g/RrSZPmk1uQnsuOAT78yUNZoinpYWOOgzcZ9cMk6xUfiJbctE++w/Ulwgq2uxJCCSH16BBUStmiUdgUh6AO0AInmjbMHLHZBKnAF72CPpl/oXzh+GGgpCU8+Pjb1eRx1UCYsA879fFOLsBsAbdq/Im6V8GzdTUWGbYNXA63JjR3bwKdnTLkYM818A/PLr5hxBQRr3QQyUqajyGywTmQLQLrTGXM16mjwTIx6tdxR2t95t0mPBfxlKLoxlH3WUlmi5YVLNZRR8EYhUtAUgjsbHXd1khMwNSW1H2O/10Tuz74H0XlStUg+P/IKjQBEMFPi+AnPduW6blh3o8xogp6mndCxGShfUjoi+KljH7tBBskNJtAL1oE9EfCXcOLFus+PrOH+99g4iMSH1Wocz/vfxzMIPV2uSXs2GmBpNgt2E8P/qj7yEAt7M3Q768WGwIB2DFYf9Vbf+DRQcKBUgTz3lNeh2h9yhOYAl44gmovwtSz4Ei8MwWEAXanHJC+PsYR6pkja6hxx8mkM10AbN0PNasZFJtDjz5ky6klFB1+n8XMjoUzpVcg+4i+uy/j1eQ4SPcSWIMeajjHfikp88EyUDb0Zi2JBgqYDyqec4sy3QOHrvR67u/ST7eYHQDP2x/CloYamt8VYelr8WhLGjZfDGWNWY/QqSzwgyGKTVEmiOuP1wmB9RyeB+S6+PniQq0IV3IqQpHx7LJDyFeeeOiLFlt+1oK2XnpR7XPT11yLwkYZ4nt2vfqsTG413w8DjxvO1pnFc85tqnHwKqe5W2atpt71XYYRXcJWOTHbnPI8DSl4v5lCq0XM1TWK7kHmQ5ZeGPILTBt9bxP3l8tPkhTyPC0uPL8pUXPxv3C7YwrTYE4FUADl+yXo8l76XuvOmto3jGiz2K86HMDIXcn5zATiHsBhjGmyrKkhXocIe7c7eNR0mYBvWeb4O7X/TfZEKjSkbt55/+swKPbY8PVn+4+51RLj7DFNfD/007Wo47SaZpCnMjqxqqlMNyeSnJ0vW05ctGGNlz9YTg+ULs19Wxk5OOcjoaVGjcBfYVOg7+GX1rbw91cbyQvP6suIpUMRfEjzhM/q6P8g0RMHIdnTVdV+haRxFSf2/9tA3JG1ovb0Waf6pYgCcSKou10yKsb6u/Z8tmmcvhlbdTU8wT2HL1FfERLDHGo4FD5kvXPDH0Rz+eUycRWJnhdWkkUSo9dia3x/zTZfQA5OzRi2QZ8beWzOZPtAeOR0Ey+5X8lgY+KfMujuFhrJeYEMtV29SBw5nVtqpCMuzYSjB7Mx3ICmqAU0A9vFDgvPRDDbVllvNgvznojzaTqe9HnMpCWFrOSIJigQMOut9t7qCjgGXZvbFC2NjyBD/oHJE/T8zbOHwcxKcStz7gEcLke9dPuwQ/uLJEzzsJdwBL//UZYqh11M7itEygHAgBgP7PLxWZ8lTU0zrx6AD+74qYqP8xqSXww5E9Fhfhv6SYBfM/yn0Xw6U65KWrwrTv10KfGiqj8E74z4IZ+bAArdAGRG6Lrpv6sASnuTsVweea2zdtWnezA9ih6jBXmC/MaMgm8Og7HRQKX3VBEXdXpL+4TGtzj+DCtPmDGhnsFZhcOInu00EJrYLoKCOCsTxC1BRW1gF03Adlx9MLNIatZ7QFaxTR7ZMhMzi7z83BfkWPM6O+Zpfbw+0YAb19NmnvEIZS6G5e5LOAV5P5yKb8acEtN5sDDxK9aWaMdr7Ppd5C32UQ/bdUZzdhMRwsjl+0kv2j9iUhHWY4Z94r/c3KRglXopQBXiXJJZwYt/SzrLyeWS5qKWqiIIdyq/HUc8VYlv/SEJ8wIE+mpKMXJkLU6HaKi3D75dDIJJV4SCilwEWZLpPLGE1tg/3zgdnWYca8IiVZp4pCMiTefjTHT5qPexea9+7FwTxvi4C7QW/v+IieWf5UaDNqtbQgsFyWElTgzhO/YiInwgeGeDjGRGBfD5kPBvNyUr5UTfMwhccRLfEEAQ6oQ+rJUCvmzTzia9eX3JpsuSPCpJHnwtEEqHv/sC3zIPgZjGW5kdugafp5zPUcnHJcaOVG5L+QAgAkn3M3kd2skrvKSC/+xikmWSw/NtIz/K04t4L4inx1yuWvvxpXMh55AGQh86S7L3HUkKBB1tXtREmlB/vmt2V0/Ig9kqLNChS2go5KDqjbU/aZefWc1oTvSi18QUgJVacfWm1PYgt0gQyfpbUrpxLX4BkELVswbcPICSimidU7gHDklFBDz8VQ5XCQmMlw1cADMeDpehYGDH62Z4Tfj4m+KPDAsoisgblxL/Za6VuNzomU9S44bLtEDWHhyUNJjviOr4BeETuy+k7NOiNW4N+OwrYaEzH8ZFuhuSbcyUjFAEeDFd4TXlYv3MwaaoBNtUTT3SjSfkDZZAH8knj5PCphPc+2eozvIkUgBL0EiIAQbk2IDNvVOU4WIQRECaGRHumZ+TQAAAZd2G2/0eV/ULxO0ydNFKADjNX/VbftGvNomkBd6yMCXXMG4ZEEE3VJrX2/nWlemZvzqJfiBWclQajF20T/aZOZ7PzKBnU5gIn6Vcc0UOv/QZ+k5kblOdeyQkzll5+QD0RiVsnrBMeXw8pxsRYOuL6Df5G6+debOa/XSpnMwAFGAav0MsDM+0fM9EIC8IFV8XJbwlbALe4j8OkBnX915nS05PDJwVZ2BKlBErAQ8xDkPNqwqVoceYTsHdLDxAEdfoHayCl27d/6zAZnu2JquuoWmJF3Gd7A+Xx50pJaKdHdrQIBBkJgt22ShD2ZfZX/Lf+XvurpJ6WmMfne5XyW1rbXv164Q9Dne7L9Z1psMiq9IRFNMnBOyZKpgMto/OkOaekI7YIWOI7v8fjo/stzsdOlx7gk9n/gATSZ2o4pJmcQOR/wA33MiGgv3HsQa70rd6O46q3P4oaXMneMt5sebfBCAkl5MfmYATcbxjPOgwikiHmLQuO+8/FeTHvBQs4Y3yo87KSmbPAKPw/oktKiTsFnE4RsJNKYy0ZretAc1+/H07wE0WN/ekZ/uc35LGRPOUK/04n0r//Gxdm8b0XbCcPBx+AAp1lIzTS5lspDzIqMhO0N8ouFmJoOJJEeVEgBPWCNNzX6NZsv/sIc29BA5a7S5R3cOmZdmQ/6o1emeA3zmY7+ZDeOylgU3gFNltrB/yZwiBBQYOehXJSinflxf+9N8kHl0Vmb6lqKONmEzTp68WYANBx2JKQmouQQMw5R8XxbPnpi63x9fwpNKTW7NLfRRgoEMv7fW/XoSuegsv6c6xovl61H/jpst4INdHqtSoUjyKdqffbSBOXwN2ubSGDYqecyPLmHOjP0GfgX80rsYtigg+T0YzE0hwI6u7V+GonRxydx/HAqMMcghvrrN1M90RL4XlaQrnqO+Lmcxvq6eZ9UAtbMROVv5/h7423rpWUCzrYSbmmNvg4+KxIPWr0WQ8bQ4V4WUVGEg4oSxYYsi5+kqec9+I8+HypKEGUaZ3P6oMZ4u5gc7fdgRq6BtA+QOtxNa7oDGTkoPf1oZae8C/lCTyBijuh3wN+VDWn5YKEP/L3oFETZiH9/o2gZsWwVl/8f6rXTZnwHUQemsDxINpbPrXscBQr54/O9zGiu8l7xXG6smiGZft1RhoGCB/7TIIZ1lVrLi5WlDwq/oJt5cFd+A9wgSAbjuV9tuZqYAPffZUl4p38enrewNnjz78Ad+nB0NWiyYNJhEo3n3pd+8EY9zFfZMxXgIfYChRo+svq4YMZgRyw59kf8ArEekCcp8HtIei0DLxKOjIxApfUwMhMcsn8abxnkqTI6gY/sSuvfsHV9havz3J2132pNoy+w8VkS77IoMQZvMFoCyjDc+EZL8vwWBuYBRO6cLMFDzokdQJSYoszRTGiE1CpQCANXBDl2JVVFEjkz+dzN1PhOCTYnPv0MGJWU8HItvkDn2uc17XIu2tFNPxQAGuG5e+ynquXjR3uKgyIIeI4lkiEAtaPke/R5lSWQYr52pILyHvNCIAAAAAAAAAAAAAAAAAAAAPmaQ4oMAa8hQhK//ceypy4HuPJTOZRHTfuHZ9M9BGhhsB8IwWP2MjausS55q9DaVCCBFaK0HpGk9Yx4L4cAlwauAAvXQ/wpA2DBMQyPGD2CVOn6cowUz65cUcgADYWCeCqQ2EStBqMcW/cyYuRrMzUyQe+nAhh8gcIfPKoWzudtKz6udQABf5OESQAD9CBCtjAwJFtAe37mtFxFQcrBT6o6HUQxK2YihE2JpJy1iKqs34HP4gIKuqv4pxPN26CohObq+lPS3aaVu4XDrhDkaTsikqwz9Z/dbQi7hjOIfSssl87AdOPYFBFMjzcDMbxQldVsiDrXSlcChPQ/KMYXqJ1j/dxchgAAAAAA;" vertex="1" parent="1">
          <mxGeometry x="350" y="240" width="447" height="970" as="geometry" />
        </mxCell>
      </root>
    </mxGraphModel>
  </diagram>
  <diagram id="XUsbl6N0TlAULyVpHDwt" name="Architecture">
    <mxGraphModel dx="1042" dy="674" grid="1" gridSize="10" guides="1" tooltips="1" connect="1" arrows="1" fold="1" page="1" pageScale="1" pageWidth="1169" pageHeight="827" math="0" shadow="0">
      <root>
        <mxCell id="0" />
        <mxCell id="1" parent="0" />
        <mxCell id="CfDFrt-k5j5OvkFycIV4-12" value="UI Layer" style="swimlane;whiteSpace=wrap;html=1;" vertex="1" parent="1">
          <mxGeometry x="350" y="200" width="650" height="210" as="geometry" />
        </mxCell>
        <mxCell id="CfDFrt-k5j5OvkFycIV4-3" value="GameViewModel.kt" style="html=1;whiteSpace=wrap;" vertex="1" parent="CfDFrt-k5j5OvkFycIV4-12">
          <mxGeometry x="80" y="90" width="110" height="50" as="geometry" />
        </mxCell>
        <mxCell id="CfDFrt-k5j5OvkFycIV4-2" value="GameScreen.kt" style="html=1;whiteSpace=wrap;" vertex="1" parent="CfDFrt-k5j5OvkFycIV4-12">
          <mxGeometry x="320" y="90" width="110" height="50" as="geometry" />
        </mxCell>
        <mxCell id="CfDFrt-k5j5OvkFycIV4-6" style="edgeStyle=orthogonalEdgeStyle;rounded=0;orthogonalLoop=1;jettySize=auto;html=1;" edge="1" parent="CfDFrt-k5j5OvkFycIV4-12" source="CfDFrt-k5j5OvkFycIV4-2" target="CfDFrt-k5j5OvkFycIV4-3">
          <mxGeometry relative="1" as="geometry" />
        </mxCell>
        <mxCell id="CfDFrt-k5j5OvkFycIV4-1" value="MainActivity.kt" style="html=1;whiteSpace=wrap;" vertex="1" parent="CfDFrt-k5j5OvkFycIV4-12">
          <mxGeometry x="480" y="90" width="110" height="50" as="geometry" />
        </mxCell>
        <mxCell id="CfDFrt-k5j5OvkFycIV4-7" style="edgeStyle=orthogonalEdgeStyle;rounded=0;orthogonalLoop=1;jettySize=auto;html=1;exitX=0;exitY=0.5;exitDx=0;exitDy=0;" edge="1" parent="CfDFrt-k5j5OvkFycIV4-12" source="CfDFrt-k5j5OvkFycIV4-1" target="CfDFrt-k5j5OvkFycIV4-2">
          <mxGeometry relative="1" as="geometry" />
        </mxCell>
        <mxCell id="CfDFrt-k5j5OvkFycIV4-13" value="UI Elements" style="swimlane;whiteSpace=wrap;html=1;" vertex="1" parent="CfDFrt-k5j5OvkFycIV4-12">
          <mxGeometry x="290" y="45" width="330" height="130" as="geometry" />
        </mxCell>
        <mxCell id="CfDFrt-k5j5OvkFycIV4-14" value="State Holder" style="swimlane;whiteSpace=wrap;html=1;" vertex="1" parent="CfDFrt-k5j5OvkFycIV4-12">
          <mxGeometry x="30" y="45" width="220" height="130" as="geometry" />
        </mxCell>
        <mxCell id="CfDFrt-k5j5OvkFycIV4-15" value="Data Layer" style="swimlane;whiteSpace=wrap;html=1;startSize=23;" vertex="1" parent="1">
          <mxGeometry x="80" y="200" width="220" height="210" as="geometry" />
        </mxCell>
        <mxCell id="CfDFrt-k5j5OvkFycIV4-4" value="GameUiState.kt" style="html=1;whiteSpace=wrap;" vertex="1" parent="CfDFrt-k5j5OvkFycIV4-15">
          <mxGeometry x="55" y="90" width="110" height="50" as="geometry" />
        </mxCell>
        <mxCell id="CfDFrt-k5j5OvkFycIV4-5" style="edgeStyle=orthogonalEdgeStyle;rounded=0;orthogonalLoop=1;jettySize=auto;html=1;exitX=0;exitY=0.5;exitDx=0;exitDy=0;" edge="1" parent="1" source="CfDFrt-k5j5OvkFycIV4-3" target="CfDFrt-k5j5OvkFycIV4-4">
          <mxGeometry relative="1" as="geometry" />
        </mxCell>
      </root>
    </mxGraphModel>
  </diagram>
</mxfile>
